<?xml version="1.0" encoding="utf-8"?><svg xmlns="http://www.w3.org/2000/svg" xmlns:xlink="http://www.w3.org/1999/xlink"><symbol viewBox="0 0 24 24" id="360" xmlns="http://www.w3.org/2000/svg"><path d="M0 0h24v24H0V0z" fill="none"/><path d="M12 7C6.48 7 2 9.24 2 12c0 2.24 2.94 4.13 7 4.77V20l4-4-4-4v2.73c-3.15-.56-5-1.9-5-2.73 0-1.06 3.04-3 8-3s8 1.94 8 3c0 .73-1.46 1.89-4 2.53v2.05c3.53-.77 6-2.53 6-4.58 0-2.76-4.48-5-10-5z"/></symbol><symbol viewBox="0 0 24 24" id="biotech" xmlns="http://www.w3.org/2000/svg"><path fill="none" d="M0 0h24v24H0z"/><path d="M7 19c-1.1 0-2 .9-2 2h14c0-1.1-.9-2-2-2h-4v-2h3c1.1 0 2-.9 2-2h-8c-1.66 0-3-1.34-3-3a3 3 0 011.47-2.57c.41.59 1.06 1 1.83 1.06.7.06 1.36-.19 1.85-.62l.59 1.61.94-.34.34.94 1.88-.68-.34-.94.94-.34-2.74-7.52-.94.34-.34-.94-1.88.68.34.94-.94.35.56 1.55c-1.17-.04-2.19.75-2.48 1.86A5.01 5.01 0 005 12c0 2.76 2.24 5 5 5v2H7zm5.86-14.48l1.71 4.7-.94.34-1.71-4.7.94-.34zM10.5 7c.55 0 1 .45 1 1s-.45 1-1 1-1-.45-1-1 .45-1 1-1z"/></symbol><symbol viewBox="0 0 24 24" id="feed" xmlns="http://www.w3.org/2000/svg"><path d="M0 0h24v24H0V0z" fill="none"/><path d="M16 3H5c-1.1 0-2 .9-2 2v14c0 1.1.9 2 2 2h14c1.1 0 2-.9 2-2V8l-5-5zm3 16H5V5h10v4h4v10zM7 17h10v-2H7v2zm5-10H7v2h5V7zm-5 6h10v-2H7v2z"/></symbol></svg>