<?xml version="1.0" encoding="utf-8"?><svg xmlns="http://www.w3.org/2000/svg" xmlns:xlink="http://www.w3.org/1999/xlink"><symbol viewBox="0 0 24 24" id="360" xmlns="http://www.w3.org/2000/svg"><path d="M0 0h24v24H0V0z" fill="none"/><path d="M12 7C6.48 7 2 9.24 2 12c0 2.24 2.94 4.13 7 4.77V20l4-4-4-4v2.73c-3.15-.56-5-1.9-5-2.73 0-1.06 3.04-3 8-3s8 1.94 8 3c0 .73-1.46 1.89-4 2.53v2.05c3.53-.77 6-2.53 6-4.58 0-2.76-4.48-5-10-5z"/></symbol><symbol viewBox="0 0 24 24" id="biotech" xmlns="http://www.w3.org/2000/svg"><path fill="none" d="M0 0h24v24H0z"/><path d="M7 19c-1.1 0-2 .9-2 2h14c0-1.1-.9-2-2-2h-4v-2h3c1.1 0 2-.9 2-2h-8c-1.66 0-3-1.34-3-3a3 3 0 011.47-2.57c.41.59 1.06 1 1.83 1.06.7.06 1.36-.19 1.85-.62l.59 1.61.94-.34.34.94 1.88-.68-.34-.94.94-.34-2.74-7.52-.94.34-.34-.94-1.88.68.34.94-.94.35.56 1.55c-1.17-.04-2.19.75-2.48 1.86A5.01 5.01 0 005 12c0 2.76 2.24 5 5 5v2H7zm5.86-14.48l1.71 4.7-.94.34-1.71-4.7.94-.34zM10.5 7c.55 0 1 .45 1 1s-.45 1-1 1-1-.45-1-1 .45-1 1-1z"/></symbol><symbol viewBox="0 0 24 24" id="feed" xmlns="http://www.w3.org/2000/svg"><path d="M0 0h24v24H0V0z" fill="none"/><path d="M16 3H5c-1.1 0-2 .9-2 2v14c0 1.1.9 2 2 2h14c1.1 0 2-.9 2-2V8l-5-5zm3 16H5V5h10v4h4v10zM7 17h10v-2H7v2zm5-10H7v2h5V7zm-5 6h10v-2H7v2z"/></symbol><symbol viewBox="0 0 24 24" id="location" xmlns="http://www.w3.org/2000/svg"><path d="M0 0h24v24H0V0z" fill="none"/><path d="M12 2C8.13 2 5 5.13 5 9c0 5.25 7 13 7 13s7-7.75 7-13c0-3.87-3.13-7-7-7zM7 9c0-2.76 2.24-5 5-5s5 2.24 5 5c0 2.88-2.88 7.19-5 9.88C9.92 16.21 7 11.85 7 9z"/><circle cx="12" cy="9" r="2.5"/></symbol><symbol viewBox="0 0 24 24" id="login" xmlns="http://www.w3.org/2000/svg"><path fill="none" d="M0 0h24v24H0z"/><path d="M11 7L9.6 8.4l2.6 2.6H2v2h10.2l-2.6 2.6L11 17l5-5-5-5zm9 12h-8v2h8c1.1 0 2-.9 2-2V5c0-1.1-.9-2-2-2h-8v2h8v14z"/></symbol><symbol viewBox="0 0 245.669 58.205" id="logo" xmlns="http://www.w3.org/2000/svg"><g fill="#a7a5a6" fill-rule="evenodd"><path d="M186.563 57.664v-10.32h3.67v-1.489H181.2v1.488h3.67v10.32zm-7.479 0v-1.49h-4.924v-3.89h4.483v-1.49h-4.483v-3.45h4.924v-1.489h-6.615v11.809zm-12.792 0v-10.32h3.672v-1.489h-9.035v1.488h3.671v10.32zm-15.159 0l5.583-9.137h.017v9.137h1.691V45.855h-1.741l-5.584 9.204h-.016v-9.204h-1.692v11.809zm-4.602-11.504c-.863-.389-1.726-.508-2.656-.508-3.604 0-6.243 2.403-6.243 6.056 0 3.757 2.487 6.161 6.225 6.161.694 0 1.794-.033 2.69-.425l-.102-1.642c-.574.355-1.742.575-2.57.575-2.455 0-4.451-1.843-4.451-4.618 0-2.656 1.812-4.619 4.536-4.619.879 0 1.69.22 2.435.66zm-16.835 11.504v-4.72h1.659c2.114 0 4.177-.931 4.177-3.554 0-2.69-2.012-3.535-4.432-3.535h-3.095v11.809zm1.439-10.32c1.032 0 2.605.541 2.605 2.03 0 1.557-1.32 2.08-2.37 2.08h-1.674v-4.11zm-6.464 10.32v-1.49h-4.923v-3.89h4.483v-1.49h-4.483v-3.45h4.923v-1.489h-6.615v11.809zm-14.399-10.422c.999 0 2.184.356 2.184 1.76 0 1.743-1.405 1.895-3.03 1.895h-.93v-3.655zm-.676 5.042c1.455 0 3.061.254 3.061 2.08 0 1.574-1.352 1.912-2.892 1.912h-1.269v-3.992zm.355 5.38c2.402 0 4.501-.626 4.501-3.147 0-1.657-1.135-2.707-2.741-2.843v-.034c1.488-.389 2.436-1.183 2.436-2.808 0-2.166-1.691-2.977-4.146-2.977h-3.196v11.809zm-14.16 0l5.581-9.137h.018v9.137h1.692V45.855h-1.743l-5.582 9.204h-.017v-9.204h-1.693v11.809zm-12.995 0v-5.38h5.65v5.38h1.692V45.855h-1.691v4.939h-5.651v-4.939h-1.692v11.809zM76.72 45.855l-3.568 6.987h-.051l-3.435-6.987h-1.98l4.517 8.73-.152.338c-.27.61-.693 1.302-1.623 1.302a2.71 2.71 0 01-.813-.135l-.102 1.557c.322.053.61.12 1.151.12 1.844 0 2.504-1.542 3.046-2.522l4.888-9.39zm166.164-22.349c-.321.407-1.472.626-2.114.626-.61 0-1.76-.22-2.064-.626l-.236 1.506c.405.27 1.708.456 2.3.456.625 0 1.962-.185 2.368-.456zm-4.872 14.584l5.583-9.136h.016v9.136h1.693V26.28h-1.742l-5.584 9.204h-.016V26.28h-1.694v11.81zm-12.944 0l5.583-9.136h.017v9.136h1.692V26.28h-1.742l-5.583 9.204h-.016V26.28h-1.693v11.81zm-12.062 0v-5.787l5.261 5.787h2.47l-5.989-6.226 5.55-5.584h-2.251l-5.041 5.195V26.28h-1.692v11.81zm-4.552-11.505c-.863-.389-1.726-.507-2.656-.507-3.604 0-6.243 2.402-6.243 6.056 0 3.756 2.487 6.161 6.225 6.161.694 0 1.795-.033 2.691-.426l-.103-1.64c-.574.354-1.741.574-2.57.574-2.454 0-4.45-1.843-4.45-4.618 0-2.656 1.81-4.619 4.534-4.619.88 0 1.693.22 2.436.66zM196.729 38.09V36.6h-4.924v-3.89h4.484v-1.488h-4.484v-3.453h4.924V26.28h-6.614v11.81zm-12.13-6.378a3.19 3.19 0 01-.931.118c-2.183 0-2.893-1.404-2.893-3.654V26.28h-1.691v2.115c0 3.317 1.673 4.924 4.584 4.924.321 0 .643-.017.93-.068v4.839h1.693V26.28h-1.692zm-15.82 6.378l5.582-9.136h.018v9.136h1.693V26.28h-1.744l-5.583 9.204h-.016V26.28h-1.693v11.81zm-12.994 0v-5.38h5.651v5.38h1.692V26.28h-1.692v4.942h-5.65V26.28h-1.693v11.81zm-13.129 0l3.368-5.008 3.484 5.008h2.13l-4.363-6.176 3.976-5.634h-1.93l-3.129 4.534-3.147-4.534h-2.029l3.957 5.67-4.346 6.14zm-4.095 0V36.6h-4.922v-3.89h4.482v-1.488h-4.482v-3.453h4.922V26.28h-6.614v11.81zm-12.79 0V27.77h3.67v-1.49h-9.033v1.49h3.67v10.32zm-15.16 0l5.584-9.136h.016v9.136h1.692V26.28h-1.743l-5.583 9.204h-.017V26.28h-1.691v11.81zm-14.482.205c3.027 0 3.196-4.03 3.196-7.124v-3.402h3.943v10.32h1.691V26.28h-7.325v4.281c0 2.521-.102 6.242-1.81 6.242-.321 0-.677-.032-1.066-.168v1.455c.356.138.812.205 1.371.205zm-14.788-6.11c0 3.587 2.08 6.11 5.685 6.11 3.603 0 5.683-2.523 5.683-6.11 0-3.502-2.097-6.107-5.683-6.107-3.587 0-5.685 2.605-5.685 6.107zm1.793 0c0-2.402 1.286-4.619 3.892-4.619 2.605 0 3.89 2.217 3.89 4.619 0 2.351-1.183 4.618-3.89 4.618s-3.892-2.267-3.892-4.618zm-6.7 5.905h1.692V26.28h-9.035v11.81h1.693V27.77h5.65zm76.018-34.157c-.321.405-1.472.626-2.115.626-.609 0-1.758-.22-2.064-.626l-.237 1.505c.407.27 1.71.457 2.301.457.626 0 1.963-.187 2.368-.457zm-4.872 14.583l5.581-9.136h.019v9.136h1.69V6.706h-1.74l-5.585 9.204h-.017V6.707h-1.69v11.809zm-12.943 0l5.582-9.136h.017v9.136h1.692V6.706h-1.743l-5.582 9.204h-.018V6.707h-1.692v11.809zm-12.064 0V12.73l5.262 5.786h2.47l-5.99-6.226 5.549-5.583h-2.25l-5.04 5.193V6.707h-1.693v11.809zM118.021 7.01c-.862-.389-1.725-.507-2.657-.507-3.603 0-6.242 2.402-6.242 6.057 0 3.755 2.487 6.16 6.226 6.16.693 0 1.793-.033 2.69-.426l-.102-1.64c-.575.355-1.741.575-2.572.575-2.452 0-4.448-1.845-4.448-4.619 0-2.656 1.81-4.62 4.533-4.62.88 0 1.692.221 2.436.661zm-23.28 11.505V8.296h.034l3.907 10.22h1.66l3.906-10.22h.034v10.22h1.692V6.706h-2.79l-3.638 9.813-3.705-9.812H93.05v11.809zM78.532 12.61c0 3.587 2.082 6.11 5.686 6.11 3.602 0 5.683-2.523 5.683-6.11 0-3.501-2.098-6.107-5.683-6.107-3.588 0-5.686 2.606-5.686 6.107zm1.793 0c0-2.402 1.287-4.62 3.893-4.62 2.605 0 3.89 2.218 3.89 4.62 0 2.352-1.183 4.619-3.89 4.619-2.708 0-3.893-2.267-3.893-4.619zm-7.274 5.905V8.196h3.67v-1.49h-9.034v1.49h3.672v10.32h1.692M1.014 21.024v36.684h16.675V21.024zm20.01 20.01v16.674h16.674V41.034zm20.008-20.01v36.684h16.676V21.024zm-5 21.676v13.341H22.69v-13.34zm-20.01-20.009v33.35H2.68v-33.35zm40.02 0v33.35H42.699v-33.35zM41.032 1.015h16.676v16.674H41.032zm-20.009 0h16.675v36.684H21.023zm-20.009 0h16.675v16.674H1.014V1.015"/></g></symbol><symbol viewBox="0 0 24 24" id="search" xmlns="http://www.w3.org/2000/svg"><path d="M0 0h24v24H0V0z" fill="none"/><path d="M15.5 14h-.79l-.28-.27A6.471 6.471 0 0016 9.5 6.5 6.5 0 109.5 16c1.61 0 3.09-.59 4.23-1.57l.27.28v.79l5 4.99L20.49 19l-4.99-5zm-6 0C7.01 14 5 11.99 5 9.5S7.01 5 9.5 5 14 7.01 14 9.5 11.99 14 9.5 14z"/></symbol></svg>