<svg xmlns="http://www.w3.org/2000/svg" height="106.72" width="294.32"><g fill-rule="evenodd"><path d="M0 .002h294.316V106.72H0V.002" fill="#231f20"/><path d="M210.563 81.664v-10.32h3.67v-1.489H205.2v1.488h3.67v10.32zm-7.479 0v-1.49h-4.924v-3.89h4.483v-1.49h-4.483v-3.45h4.924v-1.489h-6.615v11.809h6.615zm-12.792 0v-10.32h3.672v-1.489h-9.035v1.488h3.671v10.32h1.692zm-15.159 0l5.583-9.137h.017v9.137h1.691V69.855h-1.741l-5.584 9.204h-.016v-9.204h-1.692v11.809h1.742zm-4.602-11.504c-.863-.389-1.726-.508-2.656-.508-3.604 0-6.243 2.403-6.243 6.056 0 3.757 2.487 6.161 6.225 6.161.694 0 1.794-.033 2.69-.425l-.102-1.642c-.574.355-1.742.575-2.57.575-2.455 0-4.451-1.843-4.451-4.618 0-2.656 1.812-4.619 4.536-4.619.879 0 1.69.22 2.435.66l.136-1.64zm-16.835 11.504v-4.72h1.659c2.114 0 4.177-.931 4.177-3.554 0-2.69-2.012-3.535-4.432-3.535h-3.095v11.809h1.691zm1.439-10.32c1.032 0 2.605.541 2.605 2.03 0 1.557-1.32 2.08-2.37 2.08h-1.674v-4.11h1.439zm-6.464 10.32v-1.49h-4.923v-3.89h4.483v-1.49h-4.483v-3.45h4.923v-1.489h-6.615v11.809h6.615zm-14.399-10.422c.999 0 2.184.356 2.184 1.76 0 1.743-1.405 1.895-3.03 1.895h-.93v-3.655h1.776zm-.676 5.042c1.455 0 3.061.254 3.061 2.08 0 1.574-1.352 1.912-2.892 1.912h-1.269v-3.992h1.1zm.355 5.38c2.402 0 4.501-.626 4.501-3.147 0-1.657-1.135-2.707-2.741-2.843v-.034c1.488-.389 2.436-1.183 2.436-2.808 0-2.166-1.691-2.977-4.146-2.977h-3.196v11.809h3.146zm-14.16 0l5.581-9.137h.018v9.137h1.692V69.855h-1.743l-5.582 9.204h-.017v-9.204h-1.693v11.809h1.744zm-12.995 0v-5.38h5.65v5.38h1.692V69.855h-1.691v4.939h-5.651v-4.939h-1.692v11.809h1.692zm-6.075-11.809l-3.568 6.987h-.051l-3.435-6.987h-1.98l4.517 8.73-.152.338c-.27.61-.693 1.302-1.623 1.302a2.71 2.71 0 01-.813-.135l-.102 1.557c.322.053.61.12 1.151.12 1.844 0 2.504-1.542 3.046-2.522l4.888-9.39h-1.878zm166.164-22.349c-.321.407-1.472.626-2.114.626-.61 0-1.76-.22-2.064-.626l-.236 1.506c.405.27 1.708.456 2.3.456.625 0 1.962-.185 2.368-.456l-.254-1.506zm-4.872 14.584l5.583-9.136h.016v9.136h1.693V50.28h-1.742l-5.584 9.204h-.016V50.28h-1.694v11.81h1.744zm-12.944 0l5.583-9.136h.017v9.136h1.692V50.28h-1.742l-5.583 9.204h-.016V50.28h-1.693v11.81h1.742zm-12.062 0v-5.787l5.261 5.787h2.47l-5.989-6.226 5.55-5.584h-2.251l-5.041 5.195V50.28h-1.692v11.81h1.692zm-4.552-11.505c-.863-.389-1.726-.507-2.656-.507-3.604 0-6.243 2.402-6.243 6.056 0 3.756 2.487 6.161 6.225 6.161.694 0 1.795-.033 2.691-.426l-.103-1.64c-.574.354-1.741.574-2.57.574-2.454 0-4.45-1.843-4.45-4.618 0-2.656 1.81-4.619 4.534-4.619.88 0 1.693.22 2.436.66l.136-1.64zM220.729 62.09V60.6h-4.924v-3.89h4.484v-1.488h-4.484v-3.453h4.924V50.28h-6.614v11.81h6.614zm-12.13-6.378a3.19 3.19 0 01-.931.118c-2.183 0-2.893-1.404-2.893-3.654V50.28h-1.691v2.115c0 3.317 1.673 4.924 4.584 4.924.321 0 .643-.017.93-.068v4.839h1.693V50.28h-1.692v5.432zm-15.82 6.378l5.582-9.136h.018v9.136h1.693V50.28h-1.744l-5.583 9.204h-.016V50.28h-1.693v11.81h1.743zm-12.994 0v-5.38h5.651v5.38h1.692V50.28h-1.692v4.942h-5.65V50.28h-1.693v11.81h1.692zm-13.129 0l3.368-5.008 3.484 5.008h2.13l-4.363-6.176 3.976-5.634h-1.93l-3.129 4.534-3.147-4.534h-2.029l3.957 5.67-4.346 6.14h2.029zm-4.095 0V60.6h-4.922v-3.89h4.482v-1.488h-4.482v-3.453h4.922V50.28h-6.614v11.81h6.614zm-12.79 0V51.77h3.67v-1.49h-9.033v1.49h3.67v10.32h1.693zm-15.16 0l5.584-9.136h.016v9.136h1.692V50.28h-1.743l-5.583 9.204h-.017V50.28h-1.691v11.81h1.742zm-14.482.205c3.027 0 3.196-4.03 3.196-7.124v-3.402h3.943v10.32h1.691V50.28h-7.325v4.281c0 2.521-.102 6.242-1.81 6.242-.321 0-.677-.032-1.066-.168v1.455c.356.138.812.205 1.371.205zm-14.788-6.11c0 3.587 2.08 6.11 5.685 6.11 3.603 0 5.683-2.523 5.683-6.11 0-3.502-2.097-6.107-5.683-6.107-3.587 0-5.685 2.605-5.685 6.107zm1.793 0c0-2.402 1.286-4.619 3.892-4.619 2.605 0 3.89 2.217 3.89 4.619 0 2.351-1.183 4.618-3.89 4.618s-3.892-2.267-3.892-4.618zm-6.7 5.905h1.692V50.28h-9.035v11.81h1.693V51.77h5.65v10.32zm76.018-34.157c-.321.405-1.472.626-2.115.626-.609 0-1.758-.22-2.064-.626l-.237 1.505c.407.27 1.71.457 2.301.457.626 0 1.963-.187 2.368-.457l-.253-1.505zm-4.872 14.583l5.581-9.136h.019v9.136h1.69v-11.81h-1.74l-5.585 9.204h-.017v-9.203h-1.69v11.809h1.742zm-12.943 0l5.582-9.136h.017v9.136h1.692v-11.81h-1.743l-5.582 9.204h-.018v-9.203h-1.692v11.809h1.744zm-12.064 0V36.73l5.262 5.786h2.47l-5.99-6.226 5.549-5.583h-2.25l-5.04 5.193v-5.193h-1.693v11.809h1.692zm-4.552-11.505c-.862-.389-1.725-.507-2.657-.507-3.603 0-6.242 2.402-6.242 6.057 0 3.755 2.487 6.16 6.226 6.16.693 0 1.793-.033 2.69-.426l-.102-1.64c-.575.355-1.741.575-2.572.575-2.452 0-4.448-1.845-4.448-4.619 0-2.656 1.81-4.62 4.533-4.62a4.7 4.7 0 012.436.661l.136-1.64zm-23.28 11.505v-10.22h.034l3.907 10.22h1.66l3.906-10.22h.034v10.22h1.692v-11.81h-2.79l-3.638 9.813-3.705-9.812h-2.792v11.809h1.692zm-16.209-5.905c0 3.587 2.082 6.11 5.686 6.11 3.602 0 5.683-2.523 5.683-6.11 0-3.501-2.098-6.107-5.683-6.107-3.588 0-5.686 2.606-5.686 6.107zm1.793 0c0-2.402 1.287-4.62 3.893-4.62 2.605 0 3.89 2.218 3.89 4.62 0 2.352-1.183 4.619-3.89 4.619-2.708 0-3.893-2.267-3.893-4.619zm-7.274 5.905v-10.32h3.67v-1.49h-9.034v1.49h3.672v10.32h1.692m-72.037 2.508v36.684h16.675V45.024zm20.01 20.01v16.674h16.674V65.034H45.023zm20.008-20.01v36.684h16.676V45.024H65.032zm-5 21.676v13.341H46.69v-13.34h13.341zm-20.01-20.009v33.35H26.68v-33.35h13.34zm40.02 0v33.35H66.699v-33.35h13.343zm-15.01-21.676h16.676v16.674H65.032V25.015zm-20.009 0h16.675v36.684H45.023V25.015zm-20.009 0h16.675v16.674H25.014V25.015" fill="#a7a5a6"/></g></svg>